<svg id="Capa_1" enable-background="new 0 0 512 512" height="512" viewBox="0 0 512 512" width="512" xmlns="http://www.w3.org/2000/svg"><g><g><ellipse cx="331.013" cy="168.127" fill="#fee5d0" rx="22.612" ry="22.927"/></g><g><path d="m471.144 345.783h-430.288c-18.422 0-33.356 14.934-33.356 33.356 0 18.422 14.934 33.356 33.356 33.356h430.288c18.422 0 33.356-14.934 33.356-33.356 0-18.422-14.934-33.356-33.356-33.356z" fill="#bed9fd"/></g><g><path d="m471.144 345.783h-30c18.422 0 33.356 14.934 33.356 33.356 0 18.422-14.934 33.356-33.356 33.356h30c18.422 0 33.356-14.934 33.356-33.356 0-18.422-14.934-33.356-33.356-33.356z" fill="#9ec8fc"/></g><g><path d="m461.439 478.046h-410.878c-2.93 0-5.305-2.375-5.305-5.305v-60.245h421.488v60.245c0 2.93-2.375 5.305-5.305 5.305z" fill="#62a4fb"/></g><g><path d="m436.744 412.496v60.245c0 2.93-2.375 5.305-5.305 5.305h28.278c2.93 0 5.305-2.375 5.305-5.305v-60.245z" fill="#5392f9"/></g><g><path d="m170.624 341.458v-10.243c0-35.51 28.787-64.297 64.297-64.297h38.713c35.51 0 64.297 28.787 64.297 64.297v10.243" fill="#f7e365"/></g><g><path d="m273.634 266.918h-30c35.51 0 64.297 28.787 64.297 64.297v10.243h30v-10.243c0-35.511-28.786-64.297-64.297-64.297z" fill="#f5de46"/></g><g><path d="m254.278 287.263c-10.756 0-19.475-8.719-19.475-19.475v-42.579h38.95v42.579c0 10.756-8.719 19.475-19.475 19.475z" fill="#fedbbd"/></g><g><path d="m257.887 245.163h-7.05c-37.96 0-68.732-30.773-68.732-68.732v-43.566c0-45.24 32.351-59.258 72.258-59.258 39.907 0 72.257 14.018 72.257 59.258v43.566c-.001 37.959-30.773 68.732-68.733 68.732z" fill="#fee5d0"/></g><g><path d="m254.362 73.607c-5.145 0-10.16.328-15 .974 32.706 4.363 57.258 18.188 57.258 58.284v43.566c0 34.048-24.763 62.296-57.258 67.761 3.733.628 7.563.972 11.475.972h7.05c37.96 0 68.732-30.773 68.732-68.732v-43.566c0-45.241-32.35-59.259-72.257-59.259z" fill="#feddc1"/></g><g><ellipse cx="177.542" cy="168.127" fill="#fee5d0" rx="22.612" ry="22.927"/></g><g><path d="m261.755 55.968h-12.786c-36.422 0-65.948 27.526-65.948 63.948v25.333h144.683v-25.333c-.001-36.422-29.527-63.948-65.949-63.948z" fill="#f7e365"/></g><g><path d="m341.591 146.2h-174.459v-25.766c0-2.953 2.394-5.348 5.347-5.348h163.764c2.953 0 5.347 2.394 5.347 5.348v25.766z" fill="#ecc52e"/></g><g><path d="m278.429 82.162h-46.135v-41.94c0-3.462 2.806-6.268 6.268-6.268h33.599c3.462 0 6.268 2.806 6.268 6.268z" fill="#f7e365"/></g><g><circle cx="52.756" cy="379.139" r="7.5"/><circle cx="110.826" cy="379.139" r="7.5"/><circle cx="168.895" cy="379.139" r="7.5"/><circle cx="226.965" cy="379.139" r="7.5"/><circle cx="285.035" cy="379.139" r="7.5"/><circle cx="343.104" cy="379.139" r="7.5"/><circle cx="401.174" cy="379.139" r="7.5"/><circle cx="459.244" cy="379.139" r="7.5"/><path d="m512 379.14c0-22.528-18.328-40.857-40.856-40.857h-125.712v-7.068c0-36.669-27.999-67.547-64.179-71.379v-10.879c23.646-7.664 42.263-26.582 49.501-50.416.086.003.171.013.258.013 16.604 0 30.112-13.649 30.112-30.427 0-9.757-4.56-18.672-12.033-24.326v-23.367c0-7.084-5.764-12.847-12.848-12.847h-2.096c-4.384-25.324-22.33-46.034-48.218-55.04v-12.325c0-7.591-6.177-13.768-13.769-13.768h-33.599c-7.592 0-13.769 6.176-13.769 13.768v12.331c-25.911 8.976-43.84 29.628-48.22 55.034h-4.094c-7.084 0-12.848 5.763-12.848 12.847v23.242c-7.624 5.676-12.201 14.636-12.201 24.451 0 16.778 13.509 30.427 30.112 30.427.087 0 .172-.01.258-.013 7.238 23.833 25.855 42.751 49.501 50.416v10.865c-36.282 3.819-64.179 34.475-64.179 71.393v7.068h-77.669c-4.143 0-7.5 3.358-7.5 7.5s3.357 7.5 7.5 7.5h385.691c14.257 0 25.856 11.599 25.856 25.857 0 14.257-11.6 25.856-25.856 25.856h-430.287c-14.256 0-25.856-11.6-25.856-25.856 0-14.257 11.6-25.857 25.856-25.857h14.596c4.143 0 7.5-3.358 7.5-7.5s-3.357-7.5-7.5-7.5h-14.596c-22.528 0-40.856 18.328-40.856 40.857 0 21.484 16.672 39.135 37.756 40.726v52.875c0 7.06 5.744 12.805 12.806 12.805h246.142c4.143 0 7.5-3.358 7.5-7.5s-3.357-7.5-7.5-7.5h-243.948v-50.55h406.488v50.55h-132.541c-4.143 0-7.5 3.358-7.5 7.5s3.357 7.5 7.5 7.5h134.735c7.061 0 12.806-5.744 12.806-12.805v-52.875c21.084-1.591 37.756-19.243 37.756-40.726zm-178.289-195.846c.203-2.263.324-4.549.324-6.863v-22.731h2.4c.095.044.185.094.283.135 5.715 2.381 9.407 7.991 9.407 14.292 0 7.565-5.366 13.863-12.414 15.167zm-108.917-114.647v7.021c0 4.142 3.357 7.5 7.5 7.5s7.5-3.358 7.5-7.5v-34.214h31.136v34.536c0 4.142 3.357 7.5 7.5 7.5s7.5-3.358 7.5-7.5v-7.342c17.359 7.591 29.167 21.591 32.957 38.939h-127.028c3.845-17.21 15.814-31.409 32.935-38.94zm-50.162 53.94h8.563.007.005 144.051c.088.003.175.013.264.013.117 0 .234-.007.352-.013h6.218v16.113h-159.46zm-12.201 45.54c0-5.92 3.234-11.227 8.441-13.848.337-.17.648-.368.948-.579h2.701v22.731c0 2.315.121 4.601.324 6.863-7.048-1.304-12.414-7.602-12.414-15.167zm27.089 8.304v-22.731h129.515v22.731c0 33.764-27.469 61.232-61.232 61.232h-7.05c-33.764 0-61.233-27.469-61.233-61.232zm61.233 76.232h7.05c2.857 0 5.674-.172 8.45-.479v15.604c0 6.603-5.372 11.975-11.976 11.975-6.602 0-11.975-5.372-11.975-11.975v-15.604c2.777.307 5.594.479 8.451.479zm-72.629 78.552c0-28.985 21.735-53.08 50.114-56.395 3.102 11.474 13.598 19.943 26.039 19.943 12.445 0 22.944-8.474 26.042-19.953 28.303 3.326 50.112 27.614 50.112 56.404v6.959h-152.307z"/></g></g></svg>