<svg id="Capa_1" data-name="Capa 1" xmlns="http://www.w3.org/2000/svg" viewBox="0 0 238.76 238.76"><defs><style>.cls-1{fill:#4d2980;}.cls-2{fill:none;}</style></defs><title>Sin título-1</title><path class="cls-1" d="M539.79,590.55c-21.7-26.44-67.65-57.3-117.79-57.3-50.32,0-96.27,31.07-117.79,57.3a7,7,0,0,0,0,8.9c22.22,27.08,68.27,57.3,117.79,57.3,51.28,0,97-32,117.79-57.3A7,7,0,0,0,539.79,590.55Zm-167,41.76A166.43,166.43,0,0,1,319.13,595c7.9-8.21,27-25.94,53.71-37.32A61.6,61.6,0,0,0,372.83,632.31ZM422,642.7A47.7,47.7,0,1,1,469.7,595,47.76,47.76,0,0,1,422,642.7Zm49.16-10.38a61.6,61.6,0,0,0,0-74.63A166.43,166.43,0,0,1,524.87,595C517,603.21,497.91,620.94,471.16,632.32Z" transform="translate(-302.62 -475.62)"/><path class="cls-1" d="M422,571.13A23.87,23.87,0,1,0,445.87,595,23.89,23.89,0,0,0,422,571.13Zm0,33.7a9.83,9.83,0,1,1,9.83-9.83A9.84,9.84,0,0,1,422,604.83Z" transform="translate(-302.62 -475.62)"/><path class="cls-1" d="M422,506.05a7,7,0,0,0,7-7V482.64a7,7,0,0,0-14,0V499a7,7,0,0,0,7,7Z" transform="translate(-302.62 -475.62)"/><path class="cls-1" d="M422,506.05" transform="translate(-302.62 -475.62)"/><path class="cls-1" d="M463.9,515.44a7,7,0,0,0,9.58-2.62l9.34-16.39a7,7,0,1,0-12.2-6.95l-9.34,16.38a7,7,0,0,0,2.62,9.58Z" transform="translate(-302.62 -475.62)"/><path class="cls-1" d="M463.9,515.44" transform="translate(-302.62 -475.62)"/><path class="cls-1" d="M370.52,512.82a7,7,0,0,0,12.2-7l-9.34-16.38a7,7,0,1,0-12.2,6.95Z" transform="translate(-302.62 -475.62)"/><path class="cls-1" d="M370.52,512.82" transform="translate(-302.62 -475.62)"/><path class="cls-1" d="M422,684a7,7,0,0,0-7,7v16.39a7,7,0,1,0,14,0V691a7,7,0,0,0-7-7Z" transform="translate(-302.62 -475.62)"/><path class="cls-1" d="M422,684" transform="translate(-302.62 -475.62)"/><path class="cls-1" d="M380.1,674.56a7,7,0,0,0-9.58,2.62l-9.34,16.39a7,7,0,1,0,12.2,6.95l9.34-16.38a7,7,0,0,0-2.62-9.58Z" transform="translate(-302.62 -475.62)"/><path class="cls-1" d="M380.1,674.56" transform="translate(-302.62 -475.62)"/><path class="cls-1" d="M473.48,677.18a7,7,0,1,0-12.2,7l9.34,16.38a7,7,0,1,0,12.2-6.95Z" transform="translate(-302.62 -475.62)"/><path class="cls-1" d="M473.48,677.18" transform="translate(-302.62 -475.62)"/><path id="_Sector_" data-name="&lt;Sector&gt;" class="cls-2" d="M571,745" transform="translate(-302.62 -475.62)"/><path id="_Sector_2" data-name="&lt;Sector&gt;" class="cls-2" d="M571,445" transform="translate(-302.62 -475.62)"/><path id="_Sector_3" data-name="&lt;Sector&gt;" class="cls-2" d="M271,445" transform="translate(-302.62 -475.62)"/><path id="_Sector_4" data-name="&lt;Sector&gt;" class="cls-2" d="M271,745" transform="translate(-302.62 -475.62)"/></svg>